<svg version="1.2" xmlns="http://www.w3.org/2000/svg" fill="#30D5C8" viewBox="0 0 190 57" width="200" height="57"><style></style><path fill-rule="evenodd" d="m39.9 12.8c2.8 2.7 4.3 6.3 4.3 10.1 0 2.9-0.9 5.6-2.5 8-1.6 2.3-3.8 4.2-6.5 5.2-2.6 1.1-5.5 1.4-8.4 0.9-2.8-0.6-5.4-2-7.4-4-2-2-3.4-4.5-3.9-7.3-0.6-2.8-0.3-5.6 0.8-8.2 1.1-2.7 2.9-4.9 5.3-6.5 2.4-1.5 5.2-2.4 8.1-2.4 3.8 0 7.5 1.5 10.2 4.2zm-18.8 1.7c-2.2 2.3-3.5 5.3-3.5 8.4 0 2.4 0.7 4.7 2 6.6 1.4 2 3.3 3.5 5.5 4.4 2.2 0.9 4.6 1.2 6.9 0.7 2.4-0.5 4.5-1.6 6.2-3.3 1.7-1.6 2.9-3.7 3.3-6 0.5-2.4 0.2-4.7-0.7-6.9-0.9-2.2-2.4-4.1-4.4-5.4-2-1.3-4.3-2-6.7-2-3.2 0-6.3 1.3-8.6 3.5z"/><path fill-rule="evenodd" d="m38 21.3c3.9 0 7.6 1.5 10.3 4.2 2.7 2.7 4.2 6.3 4.2 10.1 0 2.8-0.8 5.6-2.4 8-1.6 2.3-3.9 4.1-6.5 5.2-2.7 1.1-5.6 1.4-8.4 0.8-2.8-0.5-5.4-1.9-7.4-3.9-2-2-3.4-4.5-4-7.3-0.5-2.8-0.2-5.6 0.8-8.3 1.1-2.6 3-4.8 5.4-6.4 2.4-1.5 5.2-2.4 8.1-2.4zm-8.6 5.9c-2.2 2.2-3.5 5.3-3.5 8.4 0 2.4 0.7 4.7 2 6.6 1.3 2 3.2 3.5 5.4 4.4 2.2 0.9 4.7 1.2 7 0.7 2.4-0.5 4.5-1.6 6.2-3.3 1.7-1.6 2.8-3.7 3.3-6.1 0.5-2.3 0.2-4.7-0.7-6.8-0.9-2.2-2.4-4.1-4.4-5.4-2-1.3-4.4-2-6.7-2-3.2 0-6.3 1.3-8.6 3.5z"/><path fill-rule="evenodd" d="m26.5 22.4c1.7 0.7 3.3 1.8 4.7 3.1 1.3 1.3 2.4 2.9 3.1 4.7 0.7 1.7 1.1 3.5 1.1 5.4 0 2.8-0.8 5.6-2.4 8-1.6 2.3-3.9 4.1-6.5 5.2-2.7 1.1-5.6 1.4-8.4 0.8-2.8-0.5-5.4-1.9-7.4-3.9-2.1-2-3.4-4.5-4-7.3-0.6-2.8-0.3-5.6 0.8-8.2 1.1-2.7 3-4.9 5.4-6.5 2.3-1.5 5.1-2.4 8-2.4 1.9 0 3.8 0.4 5.6 1.1zm-14.1 4.8c-2.3 2.2-3.6 5.3-3.6 8.4 0 2.4 0.7 4.7 2.1 6.6 1.3 2 3.2 3.5 5.4 4.4 2.2 0.9 4.6 1.2 7 0.7 2.3-0.5 4.5-1.6 6.2-3.3 1.6-1.6 2.8-3.7 3.3-6.1 0.4-2.3 0.2-4.7-0.7-6.8-0.9-2.2-2.5-4.1-4.5-5.4-2-1.3-4.3-2-6.7-2-3.2 0-6.3 1.3-8.5 3.5z"/><path  d="m60.7 9.5h-1.9v39.5h1.9z"/><path fill-rule="evenodd" d="m140.3 22.5c3.7 0 5.5 2.6 5.5 5.2 0 2.5-1.8 5.1-5.5 5.1h-3.7v5.1h-3.1v-15.4zm-0.8 7.7c2.1 0 3.1-1.1 3.1-2.5 0-1.5-1-2.5-3.1-2.5h-2.9v5z"/><path fill-rule="evenodd" d="m104.7 30.8v7.4h-3.6v-15.4h6.1q1 0 2 0.3 1 0.2 1.8 0.8 0.8 0.6 1.2 1.5c0.4 0.7 0.5 1.4 0.5 2.2q0 1-0.3 1.9-0.2 0.8-0.7 1.4-0.4 0.6-1.1 0.9-0.6 0.3-1.3 0.5l4.1 5.9h-3.8zm0-0.2h1.9q0.5 0.1 1-0.1 0.5-0.2 0.8-0.6 0.8-0.7 0.8-2 0-1.2-0.8-1.8-0.8-0.6-2-0.6h-1.7z"/><path fill-rule="evenodd" d="m168.6 30.8v7.4h-3.6v-15.4h6.1q1.1 0 2 0.3 1 0.2 1.8 0.8 0.8 0.6 1.2 1.5c0.4 0.7 0.5 1.4 0.5 2.2q0 1-0.2 1.9-0.3 0.8-0.8 1.4-0.4 0.6-1.1 0.9-0.6 0.3-1.3 0.5l4.2 5.9h-3.9zm0-0.2h1.9q0.6 0 1-0.1 0.5-0.2 0.9-0.6 0.7-0.7 0.7-2 0-1.2-0.8-1.8-0.8-0.6-2-0.6h-1.7z"/><path  d="m81.2 22.5h-13.4v3.1h13.4z"/><path  d="m76.1 38.2v-13.2h-3.2v13.2z"/><path  d="m120.3 38.2v-15.4h-3.1v15.4z"/><path  d="m155.7 22.5l-1.1 3.1-4.4 12.6h-3.3l5.4-15.7z"/><path  d="m162.3 38.2h-3.3l-1.3-3.5-1-3.1-2.1-6-1.1-3.1h3.3l3.2 9 1.1 3.1z"/><path  d="m161.1 34.6l-3.4 0.1-5.2 0.1 1.1-3.2h3.1l3.3-0.1z"/><path  d="m125.3 29.9l5.1-7.1h-3.9l-3.1 4.4-1.9 2.7 1.9 2.7 3.8 5.3h3.9z"/><path  d="m184 38.2v-15.4h-3.2v15.4z"/><path  d="m189 29.9l5-7.1h-3.9l-3.1 4.4-1.9 2.7 1.9 2.7 3.9 5.3h3.8z"/><path  d="m83 33.7v-10.9h3.5v10.1c0 1.7 1.3 2.4 3.2 2.4 1.9 0 3.2-0.7 3.2-2.4v-10.1h3.4v10.9c0 3.2-3.5 4.8-6.6 4.8-3.2 0-6.7-1.6-6.7-4.8z"/><path  d="m85.2 21.9c1 0 1.8-0.8 1.8-1.7 0-1-0.8-1.8-1.8-1.8-1 0-1.8 0.8-1.8 1.8 0 0.9 0.8 1.7 1.8 1.7z"/><path  d="m94.6 21.9c0.9 0 1.7-0.8 1.7-1.7 0-1-0.8-1.8-1.7-1.8-1 0-1.8 0.8-1.8 1.8 0 0.9 0.8 1.7 1.8 1.7z"/></svg>